# xmcd
#
# Track frame offsets: 
#        150
#        15626
#        28378
#        44279
#        64081
#        79947
#        101204
#        114869
#        133647
#        149722
#        173376
#        191401
#        210179
#        212628
#        229093
#
# Disc length: 3252 seconds
#
# Revision: 0
# Processed by: cddbd v1.5.2PL0 Copyright (c) Steve Scherf et al.
# Submitted via: ExactAudioCopy v1.3
#
DISCID=cd0cb20f
DTITLE=Steve Nicely - Nicely Done
DYEAR=2018
DGENRE=Blues Rock
TTITLE0=I Owe It All to You
TTITLE1=Do Me Right
TTITLE2=Crosscut Saw
TTITLE3=All I Can Stand
TTITLE4=The Real Homewrecker
TTITLE5=Love Storm Warning
TTITLE6=Cruisin'
TTITLE7=Do You Call That A Buddy
TTITLE8=When Momma Comes Home
TTITLE9=Blues Town Jail
TTITLE10=Spotlight
TTITLE11=Salty Dog
TTITLE12=The Cheese Farm
TTITLE13=Whiskey Talkin'
TTITLE14=Fairfax Blues
EXTD=
EXTT0=
EXTT1=
EXTT2=
EXTT3=
EXTT4=
EXTT5=
EXTT6=
EXTT7=
EXTT8=
EXTT9=
EXTT10=
EXTT11=
EXTT12=
EXTT13=
EXTT14=
PLAYORDER=
